<svg width="227" height="74" viewBox="0 0 227 74" fill="none" xmlns="http://www.w3.org/2000/svg">
<path d="M184.058 45.0454V43.1957C184.058 34.2501 177.803 26.7707 169.523 25.0663C169.535 24.9438 169.56 24.8249 169.56 24.6993C169.56 22.6591 167.934 21 165.935 21C163.936 21 162.31 22.6591 162.31 24.6993C162.31 24.8249 162.335 24.9438 162.347 25.0663C154.067 26.7707 147.812 34.2501 147.812 43.1957V45.0454C146.812 45.0454 146 45.8736 146 46.895C146 50.9746 149.252 54.2936 153.249 54.2936H178.621C182.618 54.2936 185.87 50.9746 185.87 46.895C185.87 45.8736 185.059 45.0454 184.058 45.0454ZM151.437 43.1957C151.437 35.0368 157.941 28.3986 165.935 28.3986C173.929 28.3986 180.433 35.0368 180.433 43.1957L180.436 45.0454H151.437V43.1957ZM178.621 50.5943H153.249C151.91 50.5943 150.739 49.8493 150.111 48.7447H151.437H180.433H181.759C181.132 49.8493 179.96 50.5943 178.621 50.5943Z" fill="url(#paint0_linear_111_20)"/>
<path d="M226.199 26.8226L217.765 54H211.846L206.371 33.9252L200.896 54H194.977L186.493 26.8226H192.215L197.887 48.673L203.658 26.8226H209.527L215.052 48.5744L220.675 26.8226H226.199Z" fill="black"/>
<path d="M14.8958 19.7199C18.5458 19.7199 21.7354 20.4269 24.4646 21.8409C27.2268 23.2219 29.3477 25.2278 30.8274 27.8584C32.34 30.4561 33.0963 33.4977 33.0963 36.9833C33.0963 40.4688 32.34 43.494 30.8274 46.0589C29.3477 48.6237 27.2268 50.5967 24.4646 51.9777C21.7354 53.3259 18.5458 54 14.8958 54H3.69929V19.7199H14.8958ZM14.8958 49.4129C18.9075 49.4129 21.982 48.3278 24.1194 46.1575C26.2567 43.9873 27.3254 40.9292 27.3254 36.9833C27.3254 33.0045 26.2567 29.8971 24.1194 27.6611C21.982 25.4251 18.9075 24.307 14.8958 24.307H9.32221V49.4129H14.8958Z" fill="black"/>
<path d="M41.9982 15.1596L41.0264 15.1575L41.3184 25.3288L40.1507 25.3263L40.1482 15.1566L39.2967 15.1583L39.2989 25.3917L38.3327 25.3911L38.3292 15.1578L37.3895 15.1581L37.3917 25.3915L36.2454 25.3913L36.5704 15.1551L35.6838 15.1549L34.6087 23.8134C34.6087 23.8134 34.5816 24.1393 34.5822 24.2615C34.5822 25.5968 35.202 26.791 36.1691 27.5674C39.3604 31.168 36.7599 34.9345 36.7602 35.8057C36.763 36.7717 36.9554 51.4164 36.9554 51.4164C36.7188 51.2873 36.9555 51.4037 36.9554 51.4164C36.9557 52.3273 37.9702 52.4332 38.8799 52.4333C39.7895 52.4348 40.8587 52.3239 40.8579 51.4162C40.8572 51.4027 40.4845 51.5572 40.4838 51.5476L40.8579 51.4162C40.8579 51.4162 41.054 36.9271 41.053 35.8057C41.0509 34.7931 38.6392 30.5071 41.7144 27.3685C41.7164 27.3641 41.7234 27.3545 41.7279 27.35C42.4793 26.6395 42.9742 25.6596 43.0481 24.5582C43.0532 24.4801 43.05 24.2863 43.05 24.2863L41.9982 15.1596Z" fill="url(#paint1_linear_111_20)"/>
<path d="M64.4113 26.3786C66.5487 26.3786 68.4559 26.8226 70.1329 27.7104C71.8428 28.5982 73.1745 29.9135 74.1281 31.6563C75.0817 33.3991 75.5585 35.5036 75.5585 37.9698V54H69.9849V38.8083C69.9849 36.3749 69.3766 34.5171 68.1599 33.2347C66.9433 31.9194 65.2827 31.2617 63.1782 31.2617C61.0737 31.2617 59.3967 31.9194 58.1472 33.2347C56.9305 34.5171 56.3222 36.3749 56.3222 38.8083V54H50.6993V26.8226H56.3222V29.93C57.2429 28.812 58.4102 27.9406 59.8242 27.3158C61.271 26.691 62.8001 26.3786 64.4113 26.3786ZM107.639 39.7454C107.639 40.7648 107.574 41.6855 107.442 42.5075H86.6768C86.8412 44.6778 87.6468 46.4206 89.0937 47.7359C90.5405 49.0512 92.3162 49.7088 94.4206 49.7088C97.4458 49.7088 99.5832 48.4428 100.833 45.9109H106.9C106.078 48.41 104.581 50.4651 102.411 52.0764C100.274 53.6547 97.6102 54.4439 94.4206 54.4439C91.8229 54.4439 89.4883 53.8685 87.4167 52.7176C85.3779 51.5338 83.7667 49.8897 82.5829 47.7852C81.432 45.6478 80.8566 43.1816 80.8566 40.3866C80.8566 37.5916 81.4156 35.1419 82.5336 33.0374C83.6845 30.9 85.2793 29.2559 87.318 28.105C89.3896 26.9541 91.7571 26.3786 94.4206 26.3786C96.9855 26.3786 99.2708 26.9377 101.277 28.0557C103.282 29.1737 104.844 30.752 105.962 32.7907C107.08 34.7966 107.639 37.1148 107.639 39.7454ZM101.77 37.9698C101.737 35.8981 100.997 34.2376 99.5503 32.988C98.1035 31.7385 96.3114 31.1137 94.174 31.1137C92.2339 31.1137 90.5734 31.7385 89.1923 32.988C87.8112 34.2047 86.9892 35.8653 86.7261 37.9698H101.77ZM141.337 54H135.714L118.796 28.4009V54H113.173V19.6706H118.796L135.714 45.2204V19.6706H141.337V54Z" fill="black"/>
<defs>
<linearGradient id="paint0_linear_111_20" x1="165.935" y1="21" x2="165.935" y2="54.2936" gradientUnits="userSpaceOnUse">
<stop stop-color="#6B8A62"/>
<stop offset="1" stop-color="#1C241A"/>
</linearGradient>
<linearGradient id="paint1_linear_111_20" x1="28.4193" y1="22.4193" x2="49.3201" y2="43.3201" gradientUnits="userSpaceOnUse">
<stop stop-color="#6B8A62"/>
<stop offset="1" stop-color="#1C241A"/>
</linearGradient>
</defs>
</svg>
